<?xml version="1.0" encoding="utf-8"?>
<!-- Generator: Adobe Illustrator 25.2.1, SVG Export Plug-In . SVG Version: 6.00 Build 0)  -->
<svg version="1.1" id="Capa_1" xmlns="http://www.w3.org/2000/svg" xmlns:xlink="http://www.w3.org/1999/xlink" x="0px" y="0px"
	 viewBox="0 0 646 646" style="enable-background:new 0 0 646 646;" xml:space="preserve">
<style type="text/css">
	.st0{fill:#010101;}
	.st1{fill:#3664BF;}
</style>
<g>
	<path class="st0" d="M311.16,195.69c-1.25,3.13-5.6,3.27-7.12,0.26c-4.25-8.44-12.62-14.33-23.47-16.43
		c-9.98-1.93-19.14-0.75-27.81,3.95c-3.09,1.67-6.63-1.38-5.52-4.71c5.44-16.33,13.66-30.49,24.49-43.02
		c38.56-44.6,87.31-67.37,146.59-63.8c40.03,2.41,74.11,19.44,100.56,49.67c17.5,20,22.64,44.79,21.47,70.8
		c-1.16,25.7-6.93,50.7-13.33,75.5c-13.43,52.08-27.1,104.1-40.72,156.13c-0.84,3.2-1.81,6.41-3.12,9.45
		c-6.8,15.73-21.07,22.33-37.65,17.55c-14.59-4.2-23.66-18.85-20.44-34.82c4.79-23.76,11.82-46.99,17.79-70.47
		c10.6-41.68,21.41-83.31,31.84-125.04c3.42-13.67,4.23-27.65,1.12-41.57c-5.83-26.06-24.28-39.43-48.45-45.41
		c-44.77-11.08-94.33,14.06-114.09,56.81C312.52,192.22,311.86,193.94,311.16,195.69z"/>
	<path class="st0" d="M334.79,450.28c1.31-3.08,5.63-3.14,7.1-0.14c3.41,6.94,9.5,11.37,17.21,14.17
		c11.94,4.33,23.26,3.99,33.88-1.89c3.14-1.74,6.75,1.17,5.68,4.59c-0.02,0.06-0.03,0.11-0.05,0.17c-0.85,2.77-1.78,5.53-2.97,8.17
		c-12.52,27.7-31.38,50.08-56.51,66.99c-29.9,20.13-62.52,32.04-98.98,32.09c-40.1,0.05-74.66-14.09-104.27-40.77
		c-20.84-18.77-29.3-43.16-30.29-70.34c-0.95-26.18,4.88-51.61,11.25-76.75c14.16-55.84,28.94-111.52,43.55-167.24
		c3.01-11.48,8.82-20.98,20.88-24.74c22.91-7.14,44.68,12.05,39.48,35.51c-5.53,24.95-12.44,49.6-18.75,74.38
		c-10.32,40.54-21.5,80.86-31,121.61c-3.05,13.06-3.84,26.36-1.09,39.64c5.23,25.26,22.64,38.65,45.83,45.62
		c39.66,11.91,89.68-9.03,111.58-46.11C330.14,460.45,332.57,455.5,334.79,450.28z"/>
	<path class="st1" d="M219.08,452.85c-18.9-0.51-32.72-17.37-29.24-36.1c3.61-19.45,9.16-38.46,13.91-57.65
		c11.42-46.13,23.13-92.18,34.67-138.28c3.09-12.34,9.15-22.22,21.98-26.18c21.91-6.77,42.93,12.57,38.39,36.04
		c-3.66,18.9-8.8,37.52-13.46,56.22c-11.61,46.59-23.29,93.17-34.99,139.74C246.12,443.45,234.33,453.26,219.08,452.85z"/>
	<path class="st1" d="M424.25,193.44c0.21-0.03,0.41-0.04,0.62-0.04c20.72,0.29,34.86,17.4,30.86,37.38
		c-3.81,19.05-8.88,37.84-13.58,56.7c-11.54,46.27-23.18,92.51-34.78,138.76c-4.58,18.26-17.06,27.97-33.93,26.39
		c-17.54-1.64-29.97-18.22-26.64-35.99c3.64-19.45,9.17-38.46,13.92-57.65c11.42-46.12,23.1-92.18,34.67-138.27
		c3.24-12.91,9.75-22.92,23.5-26.46C420.93,193.75,423.07,193.59,424.25,193.44z"/>
	<path class="st1" d="M377.78,226.43c-0.37,10.17-4.11,20.76-6.78,31.54c-13.79,55.64-27.81,111.22-41.67,166.85
		c-3.06,12.29-8.75,22.56-21.57,26.54c-23.72,7.37-45.03-12.94-38.85-38.12c7.24-29.53,14.55-59.04,21.9-88.54
		c8.52-34.18,17.13-68.33,25.71-102.49c2.09-8.33,4.95-16.32,11.95-21.92c9.94-7.95,20.85-8.9,32.29-3.72
		C371.57,201.44,377.76,212.1,377.78,226.43z"/>
</g>
</svg>
